<svg width="40" height="40" viewBox="0 0 40 40" fill="none" xmlns="http://www.w3.org/2000/svg">
  <path opacity="0.15" fill-rule="evenodd" clip-rule="evenodd"
    d="M6 3C4.34315 3 3 4.34315 3 6V34C3 35.6569 4.34315 37 6 37H34C35.6569 37 37 35.6569 37 34V6C37 4.34315 35.6569 3 34 3H6ZM9 11H31V17H9V11ZM9 21H21V29H9V21ZM25 21H31V29H25V21Z"
    fill="url(#g0)" />
  <path
    d="M34 2.5H6C4.067 2.5 2.5 4.067 2.5 6V34C2.5 35.933 4.067 37.5 6 37.5H34C35.933 37.5 37.5 35.933 37.5 34V6C37.5 4.067 35.933 2.5 34 2.5ZM6 4H34C35.105 4 36 4.895 36 6V34C36 35.105 35.105 36 34 36H6C4.895 36 4 35.105 4 34V6C4 4.895 4.895 4 6 4Z"
    fill="url(#g1)" />
  <path d="M9 11H31V17H9V11Z" fill="url(#g2)" />
  <path d="M9 21H21V29H9V21Z" fill="url(#g3)" />
  <path d="M25 21H31V29H25V21Z" fill="url(#g4)" />
  <defs>
    <linearGradient id="g0" x1="6" y1="3" x2="34" y2="37" gradientUnits="userSpaceOnUse">
      <stop offset="0.259336" stop-color="#22d3ee" />
      <stop offset="1" stop-color="#ffd24a" />
    </linearGradient>
    <linearGradient id="g1" x1="6" y1="2.5" x2="34" y2="37.5" gradientUnits="userSpaceOnUse">
      <stop offset="0.259336" stop-color="#22d3ee" />
      <stop offset="1" stop-color="#ffd24a" />
    </linearGradient>
    <linearGradient id="g2" x1="9" y1="11" x2="31" y2="17" gradientUnits="userSpaceOnUse">
      <stop offset="0.259336" stop-color="#22d3ee" />
      <stop offset="1" stop-color="#ffd24a" />
    </linearGradient>
    <linearGradient id="g3" x1="9" y1="21" x2="21" y2="29" gradientUnits="userSpaceOnUse">
      <stop offset="0.259336" stop-color="#22d3ee" />
      <stop offset="1" stop-color="#ffd24a" />
    </linearGradient>
    <linearGradient id="g4" x1="25" y1="21" x2="31" y2="29" gradientUnits="userSpaceOnUse">
      <stop offset="0.259336" stop-color="#22d3ee" />
      <stop offset="1" stop-color="#ffd24a" />
    </linearGradient>
  </defs>
</svg>
