<svg width="40" height="40" viewBox="0 0 40 40" fill="none" xmlns="http://www.w3.org/2000/svg">
  <path opacity="0.15" fill-rule="evenodd" clip-rule="evenodd"
    d="M20 4L32 9V20C32 28.3 26.65 33.7 20 36C13.35 33.7 8 28.3 8 20V9L20 4ZM18.7 23.3L27.2 14.8L25.8 13.4L18.7 20.5L15.6 17.4L14.2 18.8L18.7 23.3Z"
    fill="url(#g0)" />
  <path
    d="M20 3.4C19.906 3.4 19.813 3.419 19.726 3.456L7.726 8.456C7.448 8.572 7.266 8.844 7.266 9.146V20C7.266 28.694 12.9 34.285 19.756 36.705C19.918 36.762 20.082 36.762 20.244 36.705C27.1 34.285 32.734 28.694 32.734 20V9.146C32.734 8.844 32.552 8.572 32.274 8.456L20.274 3.456C20.187 3.419 20.094 3.4 20 3.4ZM31.266 20C31.266 27.851 26.221 33.003 20 35.206C13.779 33.003 8.734 27.851 8.734 20V9.653L20 4.959L31.266 9.653V20Z"
    fill="url(#g1)" />
  <path
    d="M18.7 24.2C18.503 24.2 18.314 24.122 18.174 23.982L13.674 19.482C13.381 19.189 13.381 18.714 13.674 18.421L15.074 17.021C15.367 16.728 15.842 16.728 16.135 17.021L18.7 19.586L25.665 12.621C25.958 12.328 26.433 12.328 26.726 12.621L28.126 14.021C28.419 14.314 28.419 14.789 28.126 15.082L19.226 23.982C19.086 24.122 18.897 24.2 18.7 24.2ZM15.26 18.951L18.7 22.391L26.54 14.551L26.195 14.206L19.23 21.171C18.937 21.464 18.463 21.464 18.17 21.171L15.605 18.606L15.26 18.951Z"
    fill="url(#g2)" />
  <defs>
    <linearGradient id="g0" x1="10" y1="4" x2="32" y2="36" gradientUnits="userSpaceOnUse">
      <stop offset="0.259336" stop-color="#22d3ee" />
      <stop offset="1" stop-color="#ffd24a" />
    </linearGradient>
    <linearGradient id="g1" x1="10" y1="3.4" x2="32.734" y2="36.8" gradientUnits="userSpaceOnUse">
      <stop offset="0.259336" stop-color="#22d3ee" />
      <stop offset="1" stop-color="#ffd24a" />
    </linearGradient>
    <linearGradient id="g2" x1="14" y1="13" x2="28" y2="24" gradientUnits="userSpaceOnUse">
      <stop offset="0.259336" stop-color="#22d3ee" />
      <stop offset="1" stop-color="#ffd24a" />
    </linearGradient>
  </defs>
</svg>
