<svg width="40" height="40" viewBox="0 0 40 40" fill="none" xmlns="http://www.w3.org/2000/svg">
  <path opacity="0.15" fill-rule="evenodd" clip-rule="evenodd"
    d="M20 4C12.82 4 7 7.13 7 11V29C7 32.87 12.82 36 20 36C27.18 36 33 32.87 33 29V11C33 7.13 27.18 4 20 4ZM31 11C31 13.54 26.12 16 20 16C13.88 16 9 13.54 9 11C9 8.46 13.88 6 20 6C26.12 6 31 8.46 31 11ZM31 16.5V22C31 24.54 26.12 27 20 27C13.88 27 9 24.54 9 22V16.5C11.74 18.48 15.72 19.5 20 19.5C24.28 19.5 28.26 18.48 31 16.5ZM31 27.5V29C31 31.54 26.12 34 20 34C13.88 34 9 31.54 9 29V27.5C11.74 29.48 15.72 30.5 20 30.5C24.28 30.5 28.26 29.48 31 27.5Z"
    fill="url(#g0)" />
  <path
    d="M20 3.5C12.635 3.5 6.5 6.742 6.5 11V29C6.5 33.258 12.635 36.5 20 36.5C27.365 36.5 33.5 33.258 33.5 29V11C33.5 6.742 27.365 3.5 20 3.5ZM32 29C32 32.228 26.676 35 20 35C13.324 35 8 32.228 8 29V25.983C10.825 28.006 15.023 29.25 20 29.25C24.977 29.25 29.175 28.006 32 25.983V29ZM32 22C32 25.228 26.676 28 20 28C13.324 28 8 25.228 8 22V14.983C10.825 17.006 15.023 18.25 20 18.25C24.977 18.25 29.175 17.006 32 14.983V22ZM20 16.5C13.324 16.5 8 13.728 8 11C8 8.272 13.324 5.5 20 5.5C26.676 5.5 32 8.272 32 11C32 13.728 26.676 16.5 20 16.5Z"
    fill="url(#g1)" />
  <defs>
    <linearGradient id="g0" x1="10" y1="4" x2="33" y2="36" gradientUnits="userSpaceOnUse">
      <stop offset="0.259336" stop-color="#22d3ee" />
      <stop offset="1" stop-color="#ffd24a" />
    </linearGradient>
    <linearGradient id="g1" x1="10" y1="3.5" x2="33" y2="36.5" gradientUnits="userSpaceOnUse">
      <stop offset="0.259336" stop-color="#22d3ee" />
      <stop offset="1" stop-color="#ffd24a" />
    </linearGradient>
  </defs>
</svg>
